<svg xmlns="http://www.w3.org/2000/svg" version="1.1" xmlns:xlink="http://www.w3.org/1999/xlink" xmlns:svgjs="http://svgjs.dev/svgjs" width="1360" height="635" preserveAspectRatio="none" viewBox="0 0 1360 635"><g mask="url(&quot;#SvgjsMask3386&quot;)" fill="none"><rect width="1360" height="635" x="0" y="0" fill="url(&quot;#SvgjsLinearGradient3387&quot;)"></rect><path d="M-81.02 516.95L-81.02 516.95" stroke="rgba(53, 195, 66, 1)" stroke-width="1.5"></path><path d="M-81.02 516.95L-51.55 652.89" stroke="rgba(53, 195, 66, 1)" stroke-width="1.5"></path><path d="M-81.02 516.95L104.14 549.84" stroke="rgba(53, 195, 66, 1)" stroke-width="1.5"></path><path d="M-51.55 652.89L-51.55 652.89" stroke="rgba(53, 195, 66, 1)" stroke-width="1.5"></path><path d="M-51.55 652.89L47.01 702.67" stroke="rgba(53, 195, 66, 1)" stroke-width="1.5"></path><path d="M-38.62 849.96L-38.62 849.96" stroke="rgba(53, 195, 66, 1)" stroke-width="1.5"></path><path d="M-38.62 849.96L56.82 806.86" stroke="rgba(53, 195, 66, 1)" stroke-width="1.5"></path><path d="M-38.62 849.96L47.01 702.67" stroke="rgba(53, 195, 66, 1)" stroke-width="1.5"></path><path d="M104.14 549.84L104.14 549.84" stroke="rgba(53, 195, 66, 1)" stroke-width="1.5"></path><path d="M104.14 549.84L222.17 551.31" stroke="rgba(53, 195, 66, 1)" stroke-width="1.5"></path><path d="M104.14 549.84L215.04 660.86" stroke="rgba(53, 195, 66, 1)" stroke-width="1.5"></path><path d="M47.01 702.67L47.01 702.67" stroke="rgba(53, 195, 66, 1)" stroke-width="1.5"></path><path d="M47.01 702.67L56.82 806.86" stroke="rgba(53, 195, 66, 1)" stroke-width="1.5"></path><path d="M47.01 702.67L104.14 549.84" stroke="rgba(53, 195, 66, 1)" stroke-width="1.5"></path><path d="M47.01 702.67L215.04 660.86" stroke="rgba(53, 195, 66, 1)" stroke-width="1.5"></path><path d="M47.01 702.67L-81.02 516.95" stroke="rgba(53, 195, 66, 1)" stroke-width="1.5"></path><path d="M56.82 806.86L56.82 806.86" stroke="rgba(53, 195, 66, 1)" stroke-width="1.5"></path><path d="M56.82 806.86L-51.55 652.89" stroke="rgba(53, 195, 66, 1)" stroke-width="1.5"></path><path d="M56.82 806.86L243.78 848.24" stroke="rgba(53, 195, 66, 1)" stroke-width="1.5"></path><path d="M188.17 385.79L188.17 385.79" stroke="rgba(53, 195, 66, 1)" stroke-width="1.5"></path><path d="M188.17 385.79L222.17 551.31" stroke="rgba(53, 195, 66, 1)" stroke-width="1.5"></path><path d="M188.17 385.79L104.14 549.84" stroke="rgba(53, 195, 66, 1)" stroke-width="1.5"></path><path d="M188.17 385.79L359.25 493.85" stroke="rgba(53, 195, 66, 1)" stroke-width="1.5"></path><path d="M222.17 551.31L222.17 551.31" stroke="rgba(53, 195, 66, 1)" stroke-width="1.5"></path><path d="M222.17 551.31L215.04 660.86" stroke="rgba(53, 195, 66, 1)" stroke-width="1.5"></path><path d="M222.17 551.31L359.25 493.85" stroke="rgba(53, 195, 66, 1)" stroke-width="1.5"></path><path d="M215.04 660.86L215.04 660.86" stroke="rgba(53, 195, 66, 1)" stroke-width="1.5"></path><path d="M215.04 660.86L361.14 658.97" stroke="rgba(53, 195, 66, 1)" stroke-width="1.5"></path><path d="M243.78 848.24L243.78 848.24" stroke="rgba(53, 195, 66, 1)" stroke-width="1.5"></path><path d="M243.78 848.24L388.93 817.28" stroke="rgba(53, 195, 66, 1)" stroke-width="1.5"></path><path d="M243.78 848.24L215.04 660.86" stroke="rgba(53, 195, 66, 1)" stroke-width="1.5"></path><path d="M411.35 360.75L411.35 360.75" stroke="rgba(53, 195, 66, 1)" stroke-width="1.5"></path><path d="M411.35 360.75L526.53 400.67" stroke="rgba(53, 195, 66, 1)" stroke-width="1.5"></path><path d="M411.35 360.75L359.25 493.85" stroke="rgba(53, 195, 66, 1)" stroke-width="1.5"></path><path d="M411.35 360.75L555.15 496.96" stroke="rgba(53, 195, 66, 1)" stroke-width="1.5"></path><path d="M359.25 493.85L359.25 493.85" stroke="rgba(53, 195, 66, 1)" stroke-width="1.5"></path><path d="M359.25 493.85L361.14 658.97" stroke="rgba(53, 195, 66, 1)" stroke-width="1.5"></path><path d="M359.25 493.85L526.53 400.67" stroke="rgba(53, 195, 66, 1)" stroke-width="1.5"></path><path d="M359.25 493.85L555.15 496.96" stroke="rgba(53, 195, 66, 1)" stroke-width="1.5"></path><path d="M361.14 658.97L361.14 658.97" stroke="rgba(53, 195, 66, 1)" stroke-width="1.5"></path><path d="M361.14 658.97L520.86 652.57" stroke="rgba(53, 195, 66, 1)" stroke-width="1.5"></path><path d="M361.14 658.97L388.93 817.28" stroke="rgba(53, 195, 66, 1)" stroke-width="1.5"></path><path d="M361.14 658.97L222.17 551.31" stroke="rgba(53, 195, 66, 1)" stroke-width="1.5"></path><path d="M361.14 658.97L243.78 848.24" stroke="rgba(53, 195, 66, 1)" stroke-width="1.5"></path><path d="M388.93 817.28L388.93 817.28" stroke="rgba(53, 195, 66, 1)" stroke-width="1.5"></path><path d="M526.53 400.67L526.53 400.67" stroke="rgba(53, 195, 66, 1)" stroke-width="1.5"></path><path d="M526.53 400.67L555.15 496.96" stroke="rgba(53, 195, 66, 1)" stroke-width="1.5"></path><path d="M526.53 400.67L666.46 519.9" stroke="rgba(53, 195, 66, 1)" stroke-width="1.5"></path><path d="M526.53 400.67L712.34 239.67" stroke="rgba(53, 195, 66, 1)" stroke-width="1.5"></path><path d="M555.15 496.96L555.15 496.96" stroke="rgba(53, 195, 66, 1)" stroke-width="1.5"></path><path d="M555.15 496.96L666.46 519.9" stroke="rgba(53, 195, 66, 1)" stroke-width="1.5"></path><path d="M555.15 496.96L520.86 652.57" stroke="rgba(53, 195, 66, 1)" stroke-width="1.5"></path><path d="M520.86 652.57L520.86 652.57" stroke="rgba(53, 195, 66, 1)" stroke-width="1.5"></path><path d="M520.86 652.57L689.09 687.51" stroke="rgba(53, 195, 66, 1)" stroke-width="1.5"></path><path d="M520.86 652.57L666.46 519.9" stroke="rgba(53, 195, 66, 1)" stroke-width="1.5"></path><path d="M520.86 652.57L388.93 817.28" stroke="rgba(53, 195, 66, 1)" stroke-width="1.5"></path><path d="M712.34 239.67L712.34 239.67" stroke="rgba(53, 195, 66, 1)" stroke-width="1.5"></path><path d="M712.34 239.67L807.67 357.29" stroke="rgba(53, 195, 66, 1)" stroke-width="1.5"></path><path d="M712.34 239.67L820.01 77.96" stroke="rgba(53, 195, 66, 1)" stroke-width="1.5"></path><path d="M666.46 519.9L666.46 519.9" stroke="rgba(53, 195, 66, 1)" stroke-width="1.5"></path><path d="M666.46 519.9L802.88 553.63" stroke="rgba(53, 195, 66, 1)" stroke-width="1.5"></path><path d="M689.09 687.51L689.09 687.51" stroke="rgba(53, 195, 66, 1)" stroke-width="1.5"></path><path d="M689.09 687.51L658.89 820.84" stroke="rgba(53, 195, 66, 1)" stroke-width="1.5"></path><path d="M689.09 687.51L844.24 669.84" stroke="rgba(53, 195, 66, 1)" stroke-width="1.5"></path><path d="M689.09 687.51L666.46 519.9" stroke="rgba(53, 195, 66, 1)" stroke-width="1.5"></path><path d="M658.89 820.84L658.89 820.84" stroke="rgba(53, 195, 66, 1)" stroke-width="1.5"></path><path d="M658.89 820.84L858.63 822.25" stroke="rgba(53, 195, 66, 1)" stroke-width="1.5"></path><path d="M658.89 820.84L520.86 652.57" stroke="rgba(53, 195, 66, 1)" stroke-width="1.5"></path><path d="M658.89 820.84L844.24 669.84" stroke="rgba(53, 195, 66, 1)" stroke-width="1.5"></path><path d="M658.89 820.84L388.93 817.28" stroke="rgba(53, 195, 66, 1)" stroke-width="1.5"></path><path d="M820.01 77.96L820.01 77.96" stroke="rgba(53, 195, 66, 1)" stroke-width="1.5"></path><path d="M820.01 77.96L952.57 -47.82" stroke="rgba(53, 195, 66, 1)" stroke-width="1.5"></path><path d="M820.01 77.96L1011.25 106.86" stroke="rgba(53, 195, 66, 1)" stroke-width="1.5"></path><path d="M820.01 77.96L995.58 245.65" stroke="rgba(53, 195, 66, 1)" stroke-width="1.5"></path><path d="M807.67 357.29L807.67 357.29" stroke="rgba(53, 195, 66, 1)" stroke-width="1.5"></path><path d="M807.67 357.29L983.08 363.59" stroke="rgba(53, 195, 66, 1)" stroke-width="1.5"></path><path d="M807.67 357.29L802.88 553.63" stroke="rgba(53, 195, 66, 1)" stroke-width="1.5"></path><path d="M807.67 357.29L666.46 519.9" stroke="rgba(53, 195, 66, 1)" stroke-width="1.5"></path><path d="M807.67 357.29L995.58 245.65" stroke="rgba(53, 195, 66, 1)" stroke-width="1.5"></path><path d="M802.88 553.63L802.88 553.63" stroke="rgba(53, 195, 66, 1)" stroke-width="1.5"></path><path d="M802.88 553.63L844.24 669.84" stroke="rgba(53, 195, 66, 1)" stroke-width="1.5"></path><path d="M802.88 553.63L689.09 687.51" stroke="rgba(53, 195, 66, 1)" stroke-width="1.5"></path><path d="M802.88 553.63L1004.88 662.75" stroke="rgba(53, 195, 66, 1)" stroke-width="1.5"></path><path d="M844.24 669.84L844.24 669.84" stroke="rgba(53, 195, 66, 1)" stroke-width="1.5"></path><path d="M844.24 669.84L858.63 822.25" stroke="rgba(53, 195, 66, 1)" stroke-width="1.5"></path><path d="M844.24 669.84L1004.88 662.75" stroke="rgba(53, 195, 66, 1)" stroke-width="1.5"></path><path d="M844.24 669.84L965.26 858.54" stroke="rgba(53, 195, 66, 1)" stroke-width="1.5"></path><path d="M844.24 669.84L666.46 519.9" stroke="rgba(53, 195, 66, 1)" stroke-width="1.5"></path><path d="M858.63 822.25L858.63 822.25" stroke="rgba(53, 195, 66, 1)" stroke-width="1.5"></path><path d="M858.63 822.25L965.26 858.54" stroke="rgba(53, 195, 66, 1)" stroke-width="1.5"></path><path d="M952.57 -47.82L952.57 -47.82" stroke="rgba(53, 195, 66, 1)" stroke-width="1.5"></path><path d="M952.57 -47.82L1011.25 106.86" stroke="rgba(53, 195, 66, 1)" stroke-width="1.5"></path><path d="M952.57 -47.82L1138.78 -76.72" stroke="rgba(53, 195, 66, 1)" stroke-width="1.5"></path><path d="M1011.25 106.86L1011.25 106.86" stroke="rgba(53, 195, 66, 1)" stroke-width="1.5"></path><path d="M1011.25 106.86L995.58 245.65" stroke="rgba(53, 195, 66, 1)" stroke-width="1.5"></path><path d="M995.58 245.65L995.58 245.65" stroke="rgba(53, 195, 66, 1)" stroke-width="1.5"></path><path d="M995.58 245.65L983.08 363.59" stroke="rgba(53, 195, 66, 1)" stroke-width="1.5"></path><path d="M995.58 245.65L1151.71 220.45" stroke="rgba(53, 195, 66, 1)" stroke-width="1.5"></path><path d="M983.08 363.59L983.08 363.59" stroke="rgba(53, 195, 66, 1)" stroke-width="1.5"></path><path d="M983.08 363.59L1149.12 412.25" stroke="rgba(53, 195, 66, 1)" stroke-width="1.5"></path><path d="M1004.88 662.75L1004.88 662.75" stroke="rgba(53, 195, 66, 1)" stroke-width="1.5"></path><path d="M1004.88 662.75L1105.09 703.26" stroke="rgba(53, 195, 66, 1)" stroke-width="1.5"></path><path d="M1004.88 662.75L1106.37 490.92" stroke="rgba(53, 195, 66, 1)" stroke-width="1.5"></path><path d="M1004.88 662.75L965.26 858.54" stroke="rgba(53, 195, 66, 1)" stroke-width="1.5"></path><path d="M965.26 858.54L965.26 858.54" stroke="rgba(53, 195, 66, 1)" stroke-width="1.5"></path><path d="M1138.78 -76.72L1138.78 -76.72" stroke="rgba(53, 195, 66, 1)" stroke-width="1.5"></path><path d="M1138.78 -76.72L1237.77 -64.49" stroke="rgba(53, 195, 66, 1)" stroke-width="1.5"></path><path d="M1138.78 -76.72L1251.4 111.06" stroke="rgba(53, 195, 66, 1)" stroke-width="1.5"></path><path d="M1138.78 -76.72L1011.25 106.86" stroke="rgba(53, 195, 66, 1)" stroke-width="1.5"></path><path d="M1138.78 -76.72L1429.15 -81.6" stroke="rgba(53, 195, 66, 1)" stroke-width="1.5"></path><path d="M1151.71 220.45L1151.71 220.45" stroke="rgba(53, 195, 66, 1)" stroke-width="1.5"></path><path d="M1151.71 220.45L1283.23 220.38" stroke="rgba(53, 195, 66, 1)" stroke-width="1.5"></path><path d="M1151.71 220.45L1251.4 111.06" stroke="rgba(53, 195, 66, 1)" stroke-width="1.5"></path><path d="M1151.71 220.45L1011.25 106.86" stroke="rgba(53, 195, 66, 1)" stroke-width="1.5"></path><path d="M1149.12 412.25L1149.12 412.25" stroke="rgba(53, 195, 66, 1)" stroke-width="1.5"></path><path d="M1149.12 412.25L1106.37 490.92" stroke="rgba(53, 195, 66, 1)" stroke-width="1.5"></path><path d="M1149.12 412.25L1297.47 388.46" stroke="rgba(53, 195, 66, 1)" stroke-width="1.5"></path><path d="M1106.37 490.92L1106.37 490.92" stroke="rgba(53, 195, 66, 1)" stroke-width="1.5"></path><path d="M1106.37 490.92L983.08 363.59" stroke="rgba(53, 195, 66, 1)" stroke-width="1.5"></path><path d="M1106.37 490.92L1286.19 514.69" stroke="rgba(53, 195, 66, 1)" stroke-width="1.5"></path><path d="M1106.37 490.92L1105.09 703.26" stroke="rgba(53, 195, 66, 1)" stroke-width="1.5"></path><path d="M1105.09 703.26L1105.09 703.26" stroke="rgba(53, 195, 66, 1)" stroke-width="1.5"></path><path d="M1105.09 703.26L1239.31 707.49" stroke="rgba(53, 195, 66, 1)" stroke-width="1.5"></path><path d="M1105.09 703.26L1089.09 852.44" stroke="rgba(53, 195, 66, 1)" stroke-width="1.5"></path><path d="M1105.09 703.26L965.26 858.54" stroke="rgba(53, 195, 66, 1)" stroke-width="1.5"></path><path d="M1089.09 852.44L1089.09 852.44" stroke="rgba(53, 195, 66, 1)" stroke-width="1.5"></path><path d="M1089.09 852.44L965.26 858.54" stroke="rgba(53, 195, 66, 1)" stroke-width="1.5"></path><path d="M1237.77 -64.49L1237.77 -64.49" stroke="rgba(53, 195, 66, 1)" stroke-width="1.5"></path><path d="M1251.4 111.06L1251.4 111.06" stroke="rgba(53, 195, 66, 1)" stroke-width="1.5"></path><path d="M1251.4 111.06L1283.23 220.38" stroke="rgba(53, 195, 66, 1)" stroke-width="1.5"></path><path d="M1283.23 220.38L1283.23 220.38" stroke="rgba(53, 195, 66, 1)" stroke-width="1.5"></path><path d="M1283.23 220.38L1407.31 262.44" stroke="rgba(53, 195, 66, 1)" stroke-width="1.5"></path><path d="M1283.23 220.38L1297.47 388.46" stroke="rgba(53, 195, 66, 1)" stroke-width="1.5"></path><path d="M1283.23 220.38L1149.12 412.25" stroke="rgba(53, 195, 66, 1)" stroke-width="1.5"></path><path d="M1283.23 220.38L1460.26 383.32" stroke="rgba(53, 195, 66, 1)" stroke-width="1.5"></path><path d="M1297.47 388.46L1297.47 388.46" stroke="rgba(53, 195, 66, 1)" stroke-width="1.5"></path><path d="M1297.47 388.46L1286.19 514.69" stroke="rgba(53, 195, 66, 1)" stroke-width="1.5"></path><path d="M1297.47 388.46L1416.42 492.97" stroke="rgba(53, 195, 66, 1)" stroke-width="1.5"></path><path d="M1286.19 514.69L1286.19 514.69" stroke="rgba(53, 195, 66, 1)" stroke-width="1.5"></path><path d="M1286.19 514.69L1416.42 492.97" stroke="rgba(53, 195, 66, 1)" stroke-width="1.5"></path><path d="M1286.19 514.69L1149.12 412.25" stroke="rgba(53, 195, 66, 1)" stroke-width="1.5"></path><path d="M1239.31 707.49L1239.31 707.49" stroke="rgba(53, 195, 66, 1)" stroke-width="1.5"></path><path d="M1239.31 707.49L1264.22 852.37" stroke="rgba(53, 195, 66, 1)" stroke-width="1.5"></path><path d="M1264.22 852.37L1264.22 852.37" stroke="rgba(53, 195, 66, 1)" stroke-width="1.5"></path><path d="M1264.22 852.37L1418.53 819.9" stroke="rgba(53, 195, 66, 1)" stroke-width="1.5"></path><path d="M1264.22 852.37L1089.09 852.44" stroke="rgba(53, 195, 66, 1)" stroke-width="1.5"></path><path d="M1264.22 852.37L1105.09 703.26" stroke="rgba(53, 195, 66, 1)" stroke-width="1.5"></path><path d="M1429.15 -81.6L1429.15 -81.6" stroke="rgba(53, 195, 66, 1)" stroke-width="1.5"></path><path d="M1429.15 -81.6L1540.82 -61.51" stroke="rgba(53, 195, 66, 1)" stroke-width="1.5"></path><path d="M1429.15 -81.6L1237.77 -64.49" stroke="rgba(53, 195, 66, 1)" stroke-width="1.5"></path><path d="M1407.31 262.44L1407.31 262.44" stroke="rgba(53, 195, 66, 1)" stroke-width="1.5"></path><path d="M1407.31 262.44L1460.26 383.32" stroke="rgba(53, 195, 66, 1)" stroke-width="1.5"></path><path d="M1407.31 262.44L1547.69 214.95" stroke="rgba(53, 195, 66, 1)" stroke-width="1.5"></path><path d="M1460.26 383.32L1460.26 383.32" stroke="rgba(53, 195, 66, 1)" stroke-width="1.5"></path><path d="M1460.26 383.32L1416.42 492.97" stroke="rgba(53, 195, 66, 1)" stroke-width="1.5"></path><path d="M1460.26 383.32L1297.47 388.46" stroke="rgba(53, 195, 66, 1)" stroke-width="1.5"></path><path d="M1460.26 383.32L1547.69 214.95" stroke="rgba(53, 195, 66, 1)" stroke-width="1.5"></path><path d="M1416.42 492.97L1416.42 492.97" stroke="rgba(53, 195, 66, 1)" stroke-width="1.5"></path><path d="M1416.42 492.97L1427.32 675.77" stroke="rgba(53, 195, 66, 1)" stroke-width="1.5"></path><path d="M1427.32 675.77L1427.32 675.77" stroke="rgba(53, 195, 66, 1)" stroke-width="1.5"></path><path d="M1427.32 675.77L1418.53 819.9" stroke="rgba(53, 195, 66, 1)" stroke-width="1.5"></path><path d="M1427.32 675.77L1601.91 672.14" stroke="rgba(53, 195, 66, 1)" stroke-width="1.5"></path><path d="M1418.53 819.9L1418.53 819.9" stroke="rgba(53, 195, 66, 1)" stroke-width="1.5"></path><path d="M1418.53 819.9L1593.87 847.32" stroke="rgba(53, 195, 66, 1)" stroke-width="1.5"></path><path d="M1418.53 819.9L1239.31 707.49" stroke="rgba(53, 195, 66, 1)" stroke-width="1.5"></path><path d="M1540.82 -61.51L1540.82 -61.51" stroke="rgba(53, 195, 66, 1)" stroke-width="1.5"></path><path d="M1540.82 -61.51L1595.93 79.56" stroke="rgba(53, 195, 66, 1)" stroke-width="1.5"></path><path d="M1595.93 79.56L1595.93 79.56" stroke="rgba(53, 195, 66, 1)" stroke-width="1.5"></path><path d="M1595.93 79.56L1547.69 214.95" stroke="rgba(53, 195, 66, 1)" stroke-width="1.5"></path><path d="M1595.93 79.56L1429.15 -81.6" stroke="rgba(53, 195, 66, 1)" stroke-width="1.5"></path><path d="M1595.93 79.56L1407.31 262.44" stroke="rgba(53, 195, 66, 1)" stroke-width="1.5"></path><path d="M1547.69 214.95L1547.69 214.95" stroke="rgba(53, 195, 66, 1)" stroke-width="1.5"></path><path d="M1601.91 672.14L1601.91 672.14" stroke="rgba(53, 195, 66, 1)" stroke-width="1.5"></path><path d="M1601.91 672.14L1593.87 847.32" stroke="rgba(53, 195, 66, 1)" stroke-width="1.5"></path><path d="M1601.91 672.14L1418.53 819.9" stroke="rgba(53, 195, 66, 1)" stroke-width="1.5"></path><path d="M1601.91 672.14L1416.42 492.97" stroke="rgba(53, 195, 66, 1)" stroke-width="1.5"></path><path d="M1593.87 847.32L1593.87 847.32" stroke="rgba(53, 195, 66, 1)" stroke-width="1.5"></path><path d="M1593.87 847.32L1427.32 675.77" stroke="rgba(53, 195, 66, 1)" stroke-width="1.5"></path><path d="M1593.87 847.32L1264.22 852.37" stroke="rgba(53, 195, 66, 1)" stroke-width="1.5"></path><circle r="5" cx="-81.02" cy="516.95" fill="rgba(53, 195, 66, 1)"></circle><circle r="5" cx="-51.55" cy="652.89" fill="rgba(53, 195, 66, 1)"></circle><circle r="5" cx="-38.62" cy="849.96" fill="rgba(53, 195, 66, 1)"></circle><circle r="5" cx="104.14" cy="549.84" fill="rgba(53, 195, 66, 1)"></circle><circle r="5" cx="47.01" cy="702.67" fill="rgba(53, 195, 66, 1)"></circle><circle r="5" cx="56.82" cy="806.86" fill="rgba(53, 195, 66, 1)"></circle><circle r="5" cx="188.17" cy="385.79" fill="rgba(53, 195, 66, 1)"></circle><circle r="5" cx="222.17" cy="551.31" fill="rgba(53, 195, 66, 1)"></circle><circle r="5" cx="215.04" cy="660.86" fill="rgba(53, 195, 66, 1)"></circle><circle r="5" cx="243.78" cy="848.24" fill="rgba(53, 195, 66, 1)"></circle><circle r="5" cx="411.35" cy="360.75" fill="rgba(53, 195, 66, 1)"></circle><circle r="5" cx="359.25" cy="493.85" fill="rgba(53, 195, 66, 1)"></circle><circle r="5" cx="361.14" cy="658.97" fill="rgba(53, 195, 66, 1)"></circle><circle r="5" cx="388.93" cy="817.28" fill="rgba(53, 195, 66, 1)"></circle><circle r="5" cx="526.53" cy="400.67" fill="rgba(53, 195, 66, 1)"></circle><circle r="5" cx="555.15" cy="496.96" fill="rgba(53, 195, 66, 1)"></circle><circle r="5" cx="520.86" cy="652.57" fill="rgba(53, 195, 66, 1)"></circle><circle r="5" cx="712.34" cy="239.67" fill="rgba(53, 195, 66, 1)"></circle><circle r="5" cx="666.46" cy="519.9" fill="rgba(53, 195, 66, 1)"></circle><circle r="5" cx="689.09" cy="687.51" fill="rgba(53, 195, 66, 1)"></circle><circle r="5" cx="658.89" cy="820.84" fill="rgba(53, 195, 66, 1)"></circle><circle r="5" cx="820.01" cy="77.96" fill="rgba(53, 195, 66, 1)"></circle><circle r="5" cx="807.67" cy="357.29" fill="rgba(53, 195, 66, 1)"></circle><circle r="5" cx="802.88" cy="553.63" fill="rgba(53, 195, 66, 1)"></circle><circle r="5" cx="844.24" cy="669.84" fill="rgba(53, 195, 66, 1)"></circle><circle r="5" cx="858.63" cy="822.25" fill="rgba(53, 195, 66, 1)"></circle><circle r="5" cx="952.57" cy="-47.82" fill="rgba(53, 195, 66, 1)"></circle><circle r="5" cx="1011.25" cy="106.86" fill="rgba(53, 195, 66, 1)"></circle><circle r="5" cx="995.58" cy="245.65" fill="rgba(53, 195, 66, 1)"></circle><circle r="5" cx="983.08" cy="363.59" fill="rgba(53, 195, 66, 1)"></circle><circle r="5" cx="1004.88" cy="662.75" fill="rgba(53, 195, 66, 1)"></circle><circle r="5" cx="965.26" cy="858.54" fill="rgba(53, 195, 66, 1)"></circle><circle r="5" cx="1138.78" cy="-76.72" fill="rgba(53, 195, 66, 1)"></circle><circle r="5" cx="1151.71" cy="220.45" fill="rgba(53, 195, 66, 1)"></circle><circle r="5" cx="1149.12" cy="412.25" fill="rgba(53, 195, 66, 1)"></circle><circle r="5" cx="1106.37" cy="490.92" fill="rgba(53, 195, 66, 1)"></circle><circle r="5" cx="1105.09" cy="703.26" fill="rgba(53, 195, 66, 1)"></circle><circle r="5" cx="1089.09" cy="852.44" fill="rgba(53, 195, 66, 1)"></circle><circle r="5" cx="1237.77" cy="-64.49" fill="rgba(53, 195, 66, 1)"></circle><circle r="5" cx="1251.4" cy="111.06" fill="rgba(53, 195, 66, 1)"></circle><circle r="5" cx="1283.23" cy="220.38" fill="rgba(53, 195, 66, 1)"></circle><circle r="5" cx="1297.47" cy="388.46" fill="rgba(53, 195, 66, 1)"></circle><circle r="5" cx="1286.19" cy="514.69" fill="rgba(53, 195, 66, 1)"></circle><circle r="5" cx="1239.31" cy="707.49" fill="rgba(53, 195, 66, 1)"></circle><circle r="5" cx="1264.22" cy="852.37" fill="rgba(53, 195, 66, 1)"></circle><circle r="5" cx="1429.15" cy="-81.6" fill="rgba(53, 195, 66, 1)"></circle><circle r="5" cx="1407.31" cy="262.44" fill="rgba(53, 195, 66, 1)"></circle><circle r="5" cx="1460.26" cy="383.32" fill="rgba(53, 195, 66, 1)"></circle><circle r="5" cx="1416.42" cy="492.97" fill="rgba(53, 195, 66, 1)"></circle><circle r="5" cx="1427.32" cy="675.77" fill="rgba(53, 195, 66, 1)"></circle><circle r="5" cx="1418.53" cy="819.9" fill="rgba(53, 195, 66, 1)"></circle><circle r="5" cx="1540.82" cy="-61.51" fill="rgba(53, 195, 66, 1)"></circle><circle r="5" cx="1595.93" cy="79.56" fill="rgba(53, 195, 66, 1)"></circle><circle r="5" cx="1547.69" cy="214.95" fill="rgba(53, 195, 66, 1)"></circle><circle r="5" cx="1601.91" cy="672.14" fill="rgba(53, 195, 66, 1)"></circle><circle r="5" cx="1593.87" cy="847.32" fill="rgba(53, 195, 66, 1)"></circle><path d="M99.39 860.21L99.39 860.21" stroke="hsl(125.39999999999998, 66.2%, 74.2%)" stroke-width="1.5"></path><path d="M99.39 860.21L253.69 843.33" stroke="hsl(125.39999999999998, 66.2%, 74.2%)" stroke-width="1.5"></path><path d="M192.47 556.14L192.47 556.14" stroke="hsl(125.39999999999998, 66.2%, 74.2%)" stroke-width="1.5"></path><path d="M192.47 556.14L240.18 649.86" stroke="hsl(125.39999999999998, 66.2%, 74.2%)" stroke-width="1.5"></path><path d="M192.47 556.14L89.11 668.14" stroke="hsl(125.39999999999998, 66.2%, 74.2%)" stroke-width="1.5"></path><path d="M192.47 556.14L358.66 685.92" stroke="hsl(125.39999999999998, 66.2%, 74.2%)" stroke-width="1.5"></path><path d="M192.47 556.14L-38.71 649.46" stroke="hsl(125.39999999999998, 66.2%, 74.2%)" stroke-width="1.5"></path><path d="M192.47 556.14L253.69 843.33" stroke="hsl(125.39999999999998, 66.2%, 74.2%)" stroke-width="1.5"></path><path d="M674.84 499.66L674.84 499.66" stroke="hsl(125.39999999999998, 66.2%, 74.2%)" stroke-width="1.5"></path><path d="M674.84 499.66L683.49 395.39" stroke="hsl(125.39999999999998, 66.2%, 74.2%)" stroke-width="1.5"></path><path d="M674.84 499.66L813.72 518.73" stroke="hsl(125.39999999999998, 66.2%, 74.2%)" stroke-width="1.5"></path><path d="M674.84 499.66L694.68 702.46" stroke="hsl(125.39999999999998, 66.2%, 74.2%)" stroke-width="1.5"></path><path d="M674.84 499.66L827.08 346.21" stroke="hsl(125.39999999999998, 66.2%, 74.2%)" stroke-width="1.5"></path><path d="M674.84 499.66L839.72 650.66" stroke="hsl(125.39999999999998, 66.2%, 74.2%)" stroke-width="1.5"></path><path d="M674.84 499.66L554.97 703.92" stroke="hsl(125.39999999999998, 66.2%, 74.2%)" stroke-width="1.5"></path><path d="M996.96 654.88L996.96 654.88" stroke="hsl(125.39999999999998, 66.2%, 74.2%)" stroke-width="1.5"></path><path d="M996.96 654.88L1094.77 697.27" stroke="hsl(125.39999999999998, 66.2%, 74.2%)" stroke-width="1.5"></path><path d="M996.96 654.88L1002.45 527.76" stroke="hsl(125.39999999999998, 66.2%, 74.2%)" stroke-width="1.5"></path><path d="M996.96 654.88L839.72 650.66" stroke="hsl(125.39999999999998, 66.2%, 74.2%)" stroke-width="1.5"></path><path d="M1157.37 342.81L1157.37 342.81" stroke="hsl(125.39999999999998, 66.2%, 74.2%)" stroke-width="1.5"></path><path d="M1157.37 342.81L1256.53 353.52" stroke="hsl(125.39999999999998, 66.2%, 74.2%)" stroke-width="1.5"></path><path d="M1157.37 342.81L1092.21 210.12" stroke="hsl(125.39999999999998, 66.2%, 74.2%)" stroke-width="1.5"></path><path d="M1157.37 342.81L1002.6 366.56" stroke="hsl(125.39999999999998, 66.2%, 74.2%)" stroke-width="1.5"></path><path d="M1104.25 817.49L1104.25 817.49" stroke="hsl(125.39999999999998, 66.2%, 74.2%)" stroke-width="1.5"></path><path d="M1104.25 817.49L1094.77 697.27" stroke="hsl(125.39999999999998, 66.2%, 74.2%)" stroke-width="1.5"></path><path d="M1104.25 817.49L982.71 857.91" stroke="hsl(125.39999999999998, 66.2%, 74.2%)" stroke-width="1.5"></path><path d="M1104.25 817.49L1239.05 808.65" stroke="hsl(125.39999999999998, 66.2%, 74.2%)" stroke-width="1.5"></path><path d="M1104.25 817.49L996.96 654.88" stroke="hsl(125.39999999999998, 66.2%, 74.2%)" stroke-width="1.5"></path><path d="M1104.25 817.49L1242.42 669.44" stroke="hsl(125.39999999999998, 66.2%, 74.2%)" stroke-width="1.5"></path><path d="M1286.88 63.34L1286.88 63.34" stroke="hsl(125.39999999999998, 66.2%, 74.2%)" stroke-width="1.5"></path><path d="M1286.88 63.34L1139.89 86.38" stroke="hsl(125.39999999999998, 66.2%, 74.2%)" stroke-width="1.5"></path><path d="M1286.88 63.34L1266.1 214.65" stroke="hsl(125.39999999999998, 66.2%, 74.2%)" stroke-width="1.5"></path><path d="M1286.88 63.34L1440.91 84.99" stroke="hsl(125.39999999999998, 66.2%, 74.2%)" stroke-width="1.5"></path><path d="M1286.88 63.34L1406.39 211.03" stroke="hsl(125.39999999999998, 66.2%, 74.2%)" stroke-width="1.5"></path><path d="M-38.71 649.46L-38.71 649.46" stroke="hsl(125.39999999999998, 66.2%, 74.2%)" stroke-width="1.5"></path><path d="M-38.71 649.46L89.11 668.14" stroke="hsl(125.39999999999998, 66.2%, 74.2%)" stroke-width="1.5"></path><path d="M-38.71 649.46L-91.99 807.87" stroke="hsl(125.39999999999998, 66.2%, 74.2%)" stroke-width="1.5"></path><path d="M-38.71 649.46L99.39 860.21" stroke="hsl(125.39999999999998, 66.2%, 74.2%)" stroke-width="1.5"></path><path d="M-38.71 649.46L240.18 649.86" stroke="hsl(125.39999999999998, 66.2%, 74.2%)" stroke-width="1.5"></path><path d="M-91.99 807.87L-91.99 807.87" stroke="hsl(125.39999999999998, 66.2%, 74.2%)" stroke-width="1.5"></path><path d="M-91.99 807.87L99.39 860.21" stroke="hsl(125.39999999999998, 66.2%, 74.2%)" stroke-width="1.5"></path><path d="M-91.99 807.87L89.11 668.14" stroke="hsl(125.39999999999998, 66.2%, 74.2%)" stroke-width="1.5"></path><path d="M-91.99 807.87L253.69 843.33" stroke="hsl(125.39999999999998, 66.2%, 74.2%)" stroke-width="1.5"></path><path d="M-91.99 807.87L240.18 649.86" stroke="hsl(125.39999999999998, 66.2%, 74.2%)" stroke-width="1.5"></path><path d="M89.11 668.14L89.11 668.14" stroke="hsl(125.39999999999998, 66.2%, 74.2%)" stroke-width="1.5"></path><path d="M89.11 668.14L240.18 649.86" stroke="hsl(125.39999999999998, 66.2%, 74.2%)" stroke-width="1.5"></path><path d="M240.18 649.86L240.18 649.86" stroke="hsl(125.39999999999998, 66.2%, 74.2%)" stroke-width="1.5"></path><path d="M240.18 649.86L358.66 685.92" stroke="hsl(125.39999999999998, 66.2%, 74.2%)" stroke-width="1.5"></path><path d="M253.69 843.33L253.69 843.33" stroke="hsl(125.39999999999998, 66.2%, 74.2%)" stroke-width="1.5"></path><path d="M253.69 843.33L342.92 812.3" stroke="hsl(125.39999999999998, 66.2%, 74.2%)" stroke-width="1.5"></path><path d="M253.69 843.33L358.66 685.92" stroke="hsl(125.39999999999998, 66.2%, 74.2%)" stroke-width="1.5"></path><path d="M358.66 685.92L358.66 685.92" stroke="hsl(125.39999999999998, 66.2%, 74.2%)" stroke-width="1.5"></path><path d="M358.66 685.92L342.92 812.3" stroke="hsl(125.39999999999998, 66.2%, 74.2%)" stroke-width="1.5"></path><path d="M358.66 685.92L554.97 703.92" stroke="hsl(125.39999999999998, 66.2%, 74.2%)" stroke-width="1.5"></path><path d="M358.66 685.92L516.83 808.31" stroke="hsl(125.39999999999998, 66.2%, 74.2%)" stroke-width="1.5"></path><path d="M342.92 812.3L342.92 812.3" stroke="hsl(125.39999999999998, 66.2%, 74.2%)" stroke-width="1.5"></path><path d="M342.92 812.3L516.83 808.31" stroke="hsl(125.39999999999998, 66.2%, 74.2%)" stroke-width="1.5"></path><path d="M554.97 703.92L554.97 703.92" stroke="hsl(125.39999999999998, 66.2%, 74.2%)" stroke-width="1.5"></path><path d="M554.97 703.92L516.83 808.31" stroke="hsl(125.39999999999998, 66.2%, 74.2%)" stroke-width="1.5"></path><path d="M554.97 703.92L694.68 702.46" stroke="hsl(125.39999999999998, 66.2%, 74.2%)" stroke-width="1.5"></path><path d="M554.97 703.92L664.09 861.58" stroke="hsl(125.39999999999998, 66.2%, 74.2%)" stroke-width="1.5"></path><path d="M554.97 703.92L342.92 812.3" stroke="hsl(125.39999999999998, 66.2%, 74.2%)" stroke-width="1.5"></path><path d="M516.83 808.31L516.83 808.31" stroke="hsl(125.39999999999998, 66.2%, 74.2%)" stroke-width="1.5"></path><path d="M516.83 808.31L664.09 861.58" stroke="hsl(125.39999999999998, 66.2%, 74.2%)" stroke-width="1.5"></path><path d="M516.83 808.31L694.68 702.46" stroke="hsl(125.39999999999998, 66.2%, 74.2%)" stroke-width="1.5"></path><path d="M683.49 395.39L683.49 395.39" stroke="hsl(125.39999999999998, 66.2%, 74.2%)" stroke-width="1.5"></path><path d="M683.49 395.39L827.08 346.21" stroke="hsl(125.39999999999998, 66.2%, 74.2%)" stroke-width="1.5"></path><path d="M683.49 395.39L813.72 518.73" stroke="hsl(125.39999999999998, 66.2%, 74.2%)" stroke-width="1.5"></path><path d="M683.49 395.39L839.72 650.66" stroke="hsl(125.39999999999998, 66.2%, 74.2%)" stroke-width="1.5"></path><path d="M683.49 395.39L694.68 702.46" stroke="hsl(125.39999999999998, 66.2%, 74.2%)" stroke-width="1.5"></path><path d="M694.68 702.46L694.68 702.46" stroke="hsl(125.39999999999998, 66.2%, 74.2%)" stroke-width="1.5"></path><path d="M694.68 702.46L839.72 650.66" stroke="hsl(125.39999999999998, 66.2%, 74.2%)" stroke-width="1.5"></path><path d="M664.09 861.58L664.09 861.58" stroke="hsl(125.39999999999998, 66.2%, 74.2%)" stroke-width="1.5"></path><path d="M664.09 861.58L694.68 702.46" stroke="hsl(125.39999999999998, 66.2%, 74.2%)" stroke-width="1.5"></path><path d="M827.08 346.21L827.08 346.21" stroke="hsl(125.39999999999998, 66.2%, 74.2%)" stroke-width="1.5"></path><path d="M827.08 346.21L813.72 518.73" stroke="hsl(125.39999999999998, 66.2%, 74.2%)" stroke-width="1.5"></path><path d="M827.08 346.21L1002.6 366.56" stroke="hsl(125.39999999999998, 66.2%, 74.2%)" stroke-width="1.5"></path><path d="M813.72 518.73L813.72 518.73" stroke="hsl(125.39999999999998, 66.2%, 74.2%)" stroke-width="1.5"></path><path d="M813.72 518.73L839.72 650.66" stroke="hsl(125.39999999999998, 66.2%, 74.2%)" stroke-width="1.5"></path><path d="M839.72 650.66L839.72 650.66" stroke="hsl(125.39999999999998, 66.2%, 74.2%)" stroke-width="1.5"></path><path d="M839.72 650.66L850.21 831.72" stroke="hsl(125.39999999999998, 66.2%, 74.2%)" stroke-width="1.5"></path><path d="M839.72 650.66L1002.45 527.76" stroke="hsl(125.39999999999998, 66.2%, 74.2%)" stroke-width="1.5"></path><path d="M850.21 831.72L850.21 831.72" stroke="hsl(125.39999999999998, 66.2%, 74.2%)" stroke-width="1.5"></path><path d="M850.21 831.72L982.71 857.91" stroke="hsl(125.39999999999998, 66.2%, 74.2%)" stroke-width="1.5"></path><path d="M850.21 831.72L664.09 861.58" stroke="hsl(125.39999999999998, 66.2%, 74.2%)" stroke-width="1.5"></path><path d="M850.21 831.72L694.68 702.46" stroke="hsl(125.39999999999998, 66.2%, 74.2%)" stroke-width="1.5"></path><path d="M1002.6 366.56L1002.6 366.56" stroke="hsl(125.39999999999998, 66.2%, 74.2%)" stroke-width="1.5"></path><path d="M1002.6 366.56L1002.45 527.76" stroke="hsl(125.39999999999998, 66.2%, 74.2%)" stroke-width="1.5"></path><path d="M1002.6 366.56L1092.21 210.12" stroke="hsl(125.39999999999998, 66.2%, 74.2%)" stroke-width="1.5"></path><path d="M1002.6 366.56L1160.19 517.6" stroke="hsl(125.39999999999998, 66.2%, 74.2%)" stroke-width="1.5"></path><path d="M1002.6 366.56L813.72 518.73" stroke="hsl(125.39999999999998, 66.2%, 74.2%)" stroke-width="1.5"></path><path d="M1002.45 527.76L1002.45 527.76" stroke="hsl(125.39999999999998, 66.2%, 74.2%)" stroke-width="1.5"></path><path d="M1002.45 527.76L1160.19 517.6" stroke="hsl(125.39999999999998, 66.2%, 74.2%)" stroke-width="1.5"></path><path d="M1002.45 527.76L813.72 518.73" stroke="hsl(125.39999999999998, 66.2%, 74.2%)" stroke-width="1.5"></path><path d="M1002.45 527.76L1094.77 697.27" stroke="hsl(125.39999999999998, 66.2%, 74.2%)" stroke-width="1.5"></path><path d="M982.71 857.91L982.71 857.91" stroke="hsl(125.39999999999998, 66.2%, 74.2%)" stroke-width="1.5"></path><path d="M982.71 857.91L1094.77 697.27" stroke="hsl(125.39999999999998, 66.2%, 74.2%)" stroke-width="1.5"></path><path d="M982.71 857.91L996.96 654.88" stroke="hsl(125.39999999999998, 66.2%, 74.2%)" stroke-width="1.5"></path><path d="M1127.08 -50.57L1127.08 -50.57" stroke="hsl(125.39999999999998, 66.2%, 74.2%)" stroke-width="1.5"></path><path d="M1127.08 -50.57L1139.89 86.38" stroke="hsl(125.39999999999998, 66.2%, 74.2%)" stroke-width="1.5"></path><path d="M1127.08 -50.57L1286.88 63.34" stroke="hsl(125.39999999999998, 66.2%, 74.2%)" stroke-width="1.5"></path><path d="M1139.89 86.38L1139.89 86.38" stroke="hsl(125.39999999999998, 66.2%, 74.2%)" stroke-width="1.5"></path><path d="M1139.89 86.38L1092.21 210.12" stroke="hsl(125.39999999999998, 66.2%, 74.2%)" stroke-width="1.5"></path><path d="M1092.21 210.12L1092.21 210.12" stroke="hsl(125.39999999999998, 66.2%, 74.2%)" stroke-width="1.5"></path><path d="M1092.21 210.12L1266.1 214.65" stroke="hsl(125.39999999999998, 66.2%, 74.2%)" stroke-width="1.5"></path><path d="M1160.19 517.6L1160.19 517.6" stroke="hsl(125.39999999999998, 66.2%, 74.2%)" stroke-width="1.5"></path><path d="M1160.19 517.6L1267.62 543.75" stroke="hsl(125.39999999999998, 66.2%, 74.2%)" stroke-width="1.5"></path><path d="M1160.19 517.6L1242.42 669.44" stroke="hsl(125.39999999999998, 66.2%, 74.2%)" stroke-width="1.5"></path><path d="M1160.19 517.6L1157.37 342.81" stroke="hsl(125.39999999999998, 66.2%, 74.2%)" stroke-width="1.5"></path><path d="M1160.19 517.6L1256.53 353.52" stroke="hsl(125.39999999999998, 66.2%, 74.2%)" stroke-width="1.5"></path><path d="M1160.19 517.6L1094.77 697.27" stroke="hsl(125.39999999999998, 66.2%, 74.2%)" stroke-width="1.5"></path><path d="M1094.77 697.27L1094.77 697.27" stroke="hsl(125.39999999999998, 66.2%, 74.2%)" stroke-width="1.5"></path><path d="M1094.77 697.27L1242.42 669.44" stroke="hsl(125.39999999999998, 66.2%, 74.2%)" stroke-width="1.5"></path><path d="M1094.77 697.27L1239.05 808.65" stroke="hsl(125.39999999999998, 66.2%, 74.2%)" stroke-width="1.5"></path><path d="M1266.1 214.65L1266.1 214.65" stroke="hsl(125.39999999999998, 66.2%, 74.2%)" stroke-width="1.5"></path><path d="M1266.1 214.65L1256.53 353.52" stroke="hsl(125.39999999999998, 66.2%, 74.2%)" stroke-width="1.5"></path><path d="M1266.1 214.65L1406.39 211.03" stroke="hsl(125.39999999999998, 66.2%, 74.2%)" stroke-width="1.5"></path><path d="M1266.1 214.65L1157.37 342.81" stroke="hsl(125.39999999999998, 66.2%, 74.2%)" stroke-width="1.5"></path><path d="M1256.53 353.52L1256.53 353.52" stroke="hsl(125.39999999999998, 66.2%, 74.2%)" stroke-width="1.5"></path><path d="M1256.53 353.52L1407.14 387.94" stroke="hsl(125.39999999999998, 66.2%, 74.2%)" stroke-width="1.5"></path><path d="M1267.62 543.75L1267.62 543.75" stroke="hsl(125.39999999999998, 66.2%, 74.2%)" stroke-width="1.5"></path><path d="M1267.62 543.75L1242.42 669.44" stroke="hsl(125.39999999999998, 66.2%, 74.2%)" stroke-width="1.5"></path><path d="M1267.62 543.75L1441.22 487.73" stroke="hsl(125.39999999999998, 66.2%, 74.2%)" stroke-width="1.5"></path><path d="M1267.62 543.75L1256.53 353.52" stroke="hsl(125.39999999999998, 66.2%, 74.2%)" stroke-width="1.5"></path><path d="M1267.62 543.75L1407.14 387.94" stroke="hsl(125.39999999999998, 66.2%, 74.2%)" stroke-width="1.5"></path><path d="M1242.42 669.44L1242.42 669.44" stroke="hsl(125.39999999999998, 66.2%, 74.2%)" stroke-width="1.5"></path><path d="M1242.42 669.44L1239.05 808.65" stroke="hsl(125.39999999999998, 66.2%, 74.2%)" stroke-width="1.5"></path><path d="M1239.05 808.65L1239.05 808.65" stroke="hsl(125.39999999999998, 66.2%, 74.2%)" stroke-width="1.5"></path><path d="M1453.07 -42.94L1453.07 -42.94" stroke="hsl(125.39999999999998, 66.2%, 74.2%)" stroke-width="1.5"></path><path d="M1453.07 -42.94L1440.91 84.99" stroke="hsl(125.39999999999998, 66.2%, 74.2%)" stroke-width="1.5"></path><path d="M1453.07 -42.94L1584.3 -69.68" stroke="hsl(125.39999999999998, 66.2%, 74.2%)" stroke-width="1.5"></path><path d="M1453.07 -42.94L1568.97 42.26" stroke="hsl(125.39999999999998, 66.2%, 74.2%)" stroke-width="1.5"></path><path d="M1440.91 84.99L1440.91 84.99" stroke="hsl(125.39999999999998, 66.2%, 74.2%)" stroke-width="1.5"></path><path d="M1440.91 84.99L1406.39 211.03" stroke="hsl(125.39999999999998, 66.2%, 74.2%)" stroke-width="1.5"></path><path d="M1440.91 84.99L1568.97 42.26" stroke="hsl(125.39999999999998, 66.2%, 74.2%)" stroke-width="1.5"></path><path d="M1440.91 84.99L1565.99 190.61" stroke="hsl(125.39999999999998, 66.2%, 74.2%)" stroke-width="1.5"></path><path d="M1440.91 84.99L1584.3 -69.68" stroke="hsl(125.39999999999998, 66.2%, 74.2%)" stroke-width="1.5"></path><path d="M1406.39 211.03L1406.39 211.03" stroke="hsl(125.39999999999998, 66.2%, 74.2%)" stroke-width="1.5"></path><path d="M1406.39 211.03L1565.99 190.61" stroke="hsl(125.39999999999998, 66.2%, 74.2%)" stroke-width="1.5"></path><path d="M1406.39 211.03L1407.14 387.94" stroke="hsl(125.39999999999998, 66.2%, 74.2%)" stroke-width="1.5"></path><path d="M1407.14 387.94L1407.14 387.94" stroke="hsl(125.39999999999998, 66.2%, 74.2%)" stroke-width="1.5"></path><path d="M1407.14 387.94L1441.22 487.73" stroke="hsl(125.39999999999998, 66.2%, 74.2%)" stroke-width="1.5"></path><path d="M1441.22 487.73L1441.22 487.73" stroke="hsl(125.39999999999998, 66.2%, 74.2%)" stroke-width="1.5"></path><path d="M1441.22 487.73L1554.32 517.03" stroke="hsl(125.39999999999998, 66.2%, 74.2%)" stroke-width="1.5"></path><path d="M1441.22 487.73L1566.37 373.99" stroke="hsl(125.39999999999998, 66.2%, 74.2%)" stroke-width="1.5"></path><path d="M1441.22 487.73L1450.16 675.27" stroke="hsl(125.39999999999998, 66.2%, 74.2%)" stroke-width="1.5"></path><path d="M1450.16 675.27L1450.16 675.27" stroke="hsl(125.39999999999998, 66.2%, 74.2%)" stroke-width="1.5"></path><path d="M1450.16 675.27L1573.55 700.19" stroke="hsl(125.39999999999998, 66.2%, 74.2%)" stroke-width="1.5"></path><path d="M1450.16 675.27L1426.58 849.61" stroke="hsl(125.39999999999998, 66.2%, 74.2%)" stroke-width="1.5"></path><path d="M1426.58 849.61L1426.58 849.61" stroke="hsl(125.39999999999998, 66.2%, 74.2%)" stroke-width="1.5"></path><path d="M1426.58 849.61L1559.47 836.09" stroke="hsl(125.39999999999998, 66.2%, 74.2%)" stroke-width="1.5"></path><path d="M1426.58 849.61L1239.05 808.65" stroke="hsl(125.39999999999998, 66.2%, 74.2%)" stroke-width="1.5"></path><path d="M1584.3 -69.68L1584.3 -69.68" stroke="hsl(125.39999999999998, 66.2%, 74.2%)" stroke-width="1.5"></path><path d="M1584.3 -69.68L1568.97 42.26" stroke="hsl(125.39999999999998, 66.2%, 74.2%)" stroke-width="1.5"></path><path d="M1584.3 -69.68L1565.99 190.61" stroke="hsl(125.39999999999998, 66.2%, 74.2%)" stroke-width="1.5"></path><path d="M1568.97 42.26L1568.97 42.26" stroke="hsl(125.39999999999998, 66.2%, 74.2%)" stroke-width="1.5"></path><path d="M1568.97 42.26L1565.99 190.61" stroke="hsl(125.39999999999998, 66.2%, 74.2%)" stroke-width="1.5"></path><path d="M1565.99 190.61L1565.99 190.61" stroke="hsl(125.39999999999998, 66.2%, 74.2%)" stroke-width="1.5"></path><path d="M1565.99 190.61L1566.37 373.99" stroke="hsl(125.39999999999998, 66.2%, 74.2%)" stroke-width="1.5"></path><path d="M1566.37 373.99L1566.37 373.99" stroke="hsl(125.39999999999998, 66.2%, 74.2%)" stroke-width="1.5"></path><path d="M1566.37 373.99L1554.32 517.03" stroke="hsl(125.39999999999998, 66.2%, 74.2%)" stroke-width="1.5"></path><path d="M1566.37 373.99L1407.14 387.94" stroke="hsl(125.39999999999998, 66.2%, 74.2%)" stroke-width="1.5"></path><path d="M1566.37 373.99L1406.39 211.03" stroke="hsl(125.39999999999998, 66.2%, 74.2%)" stroke-width="1.5"></path><path d="M1554.32 517.03L1554.32 517.03" stroke="hsl(125.39999999999998, 66.2%, 74.2%)" stroke-width="1.5"></path><path d="M1554.32 517.03L1573.55 700.19" stroke="hsl(125.39999999999998, 66.2%, 74.2%)" stroke-width="1.5"></path><path d="M1554.32 517.03L1450.16 675.27" stroke="hsl(125.39999999999998, 66.2%, 74.2%)" stroke-width="1.5"></path><path d="M1554.32 517.03L1407.14 387.94" stroke="hsl(125.39999999999998, 66.2%, 74.2%)" stroke-width="1.5"></path><path d="M1573.55 700.19L1573.55 700.19" stroke="hsl(125.39999999999998, 66.2%, 74.2%)" stroke-width="1.5"></path><path d="M1573.55 700.19L1559.47 836.09" stroke="hsl(125.39999999999998, 66.2%, 74.2%)" stroke-width="1.5"></path><path d="M1559.47 836.09L1559.47 836.09" stroke="hsl(125.39999999999998, 66.2%, 74.2%)" stroke-width="1.5"></path><path d="M1559.47 836.09L1450.16 675.27" stroke="hsl(125.39999999999998, 66.2%, 74.2%)" stroke-width="1.5"></path><circle r="25" cx="99.39" cy="860.21" fill="url(&quot;#SvgjsRadialGradient3388&quot;)"></circle><circle r="25" cx="192.47" cy="556.14" fill="url(&quot;#SvgjsRadialGradient3388&quot;)"></circle><circle r="25" cx="674.84" cy="499.66" fill="url(&quot;#SvgjsRadialGradient3388&quot;)"></circle><circle r="25" cx="996.96" cy="654.88" fill="url(&quot;#SvgjsRadialGradient3388&quot;)"></circle><circle r="25" cx="1157.37" cy="342.81" fill="url(&quot;#SvgjsRadialGradient3388&quot;)"></circle><circle r="25" cx="1104.25" cy="817.49" fill="url(&quot;#SvgjsRadialGradient3388&quot;)"></circle><circle r="25" cx="1286.88" cy="63.34" fill="url(&quot;#SvgjsRadialGradient3388&quot;)"></circle><circle r="5" cx="-38.71" cy="649.46" fill="#a4edab"></circle><circle r="5" cx="-91.99" cy="807.87" fill="#a4edab"></circle><circle r="5" cx="89.11" cy="668.14" fill="#a4edab"></circle><circle r="5" cx="240.18" cy="649.86" fill="#a4edab"></circle><circle r="5" cx="253.69" cy="843.33" fill="#a4edab"></circle><circle r="5" cx="358.66" cy="685.92" fill="#a4edab"></circle><circle r="5" cx="342.92" cy="812.3" fill="#a4edab"></circle><circle r="5" cx="554.97" cy="703.92" fill="#a4edab"></circle><circle r="5" cx="516.83" cy="808.31" fill="#a4edab"></circle><circle r="5" cx="683.49" cy="395.39" fill="#a4edab"></circle><circle r="5" cx="694.68" cy="702.46" fill="#a4edab"></circle><circle r="5" cx="664.09" cy="861.58" fill="#a4edab"></circle><circle r="5" cx="827.08" cy="346.21" fill="#a4edab"></circle><circle r="5" cx="813.72" cy="518.73" fill="#a4edab"></circle><circle r="5" cx="839.72" cy="650.66" fill="#a4edab"></circle><circle r="5" cx="850.21" cy="831.72" fill="#a4edab"></circle><circle r="5" cx="1002.6" cy="366.56" fill="#a4edab"></circle><circle r="5" cx="1002.45" cy="527.76" fill="#a4edab"></circle><circle r="5" cx="982.71" cy="857.91" fill="#a4edab"></circle><circle r="5" cx="1127.08" cy="-50.57" fill="#a4edab"></circle><circle r="5" cx="1139.89" cy="86.38" fill="#a4edab"></circle><circle r="5" cx="1092.21" cy="210.12" fill="#a4edab"></circle><circle r="5" cx="1160.19" cy="517.6" fill="#a4edab"></circle><circle r="5" cx="1094.77" cy="697.27" fill="#a4edab"></circle><circle r="5" cx="1266.1" cy="214.65" fill="#a4edab"></circle><circle r="5" cx="1256.53" cy="353.52" fill="#a4edab"></circle><circle r="5" cx="1267.62" cy="543.75" fill="#a4edab"></circle><circle r="5" cx="1242.42" cy="669.44" fill="#a4edab"></circle><circle r="5" cx="1239.05" cy="808.65" fill="#a4edab"></circle><circle r="5" cx="1453.07" cy="-42.94" fill="#a4edab"></circle><circle r="5" cx="1440.91" cy="84.99" fill="#a4edab"></circle><circle r="5" cx="1406.39" cy="211.03" fill="#a4edab"></circle><circle r="5" cx="1407.14" cy="387.94" fill="#a4edab"></circle><circle r="5" cx="1441.22" cy="487.73" fill="#a4edab"></circle><circle r="5" cx="1450.16" cy="675.27" fill="#a4edab"></circle><circle r="5" cx="1426.58" cy="849.61" fill="#a4edab"></circle><circle r="5" cx="1584.3" cy="-69.68" fill="#a4edab"></circle><circle r="5" cx="1568.97" cy="42.26" fill="#a4edab"></circle><circle r="5" cx="1565.99" cy="190.61" fill="#a4edab"></circle><circle r="5" cx="1566.37" cy="373.99" fill="#a4edab"></circle><circle r="5" cx="1554.32" cy="517.03" fill="#a4edab"></circle><circle r="5" cx="1573.55" cy="700.19" fill="#a4edab"></circle><circle r="5" cx="1559.47" cy="836.09" fill="#a4edab"></circle></g><defs><mask id="SvgjsMask3386"><rect width="1360" height="635" fill="#ffffff"></rect></mask><linearGradient x1="86.67%" y1="-28.54%" x2="13.33%" y2="128.54%" gradientUnits="userSpaceOnUse" id="SvgjsLinearGradient3387"><stop stop-color="rgba(14, 42, 71, 1)" offset="0.06"></stop><stop stop-color="rgba(80, 186, 103, 1)" offset="0.96"></stop></linearGradient><radialGradient id="SvgjsRadialGradient3388"><stop stop-color="#ffffff" offset="0.1"></stop><stop stop-color="rgba(73, 218, 86, 1)" offset="0.2"></stop><stop stop-color="rgba(73, 218, 86, 0)" offset="1"></stop></radialGradient></defs></svg>